<svg width="215" height="215" viewBox="0 0 215 215" fill="none" xmlns="http://www.w3.org/2000/svg">
<path d="M34.4917 42.2946C34.2817 41.0402 35.0778 39.8678 36.2697 39.6759L135.542 23.696C136.734 23.5042 137.871 24.3655 138.081 25.6199L157.085 139.185C157.295 140.44 156.499 141.612 155.307 141.804L56.0345 157.784C54.8426 157.976 53.7062 157.115 53.4963 155.86L34.4917 42.2946Z" fill="#FFAB00"/>
<path d="M27.0861 64.5497C26.7593 63.3204 27.439 62.0686 28.6044 61.7538L77.1336 48.6417L102.453 41.8007L114.189 38.6298C114.778 38.4707 115.409 38.5784 115.93 38.927L130.889 48.9393C131.358 49.2532 131.701 49.7383 131.85 50.2978L135.465 63.8955L143.157 92.8314L157.949 148.477C158.276 149.707 157.596 150.958 156.431 151.273L59.3721 177.497C58.2068 177.812 56.9972 177.071 56.6705 175.842L27.0861 64.5497Z" fill="#FFDF99"/>
<path d="M118.22 50.6463C118.566 51.9504 119.903 52.7222 121.206 52.3702L131.507 49.587L115.001 38.5396L118.22 50.6463Z" fill="#FFF9EB"/>
<path fill-rule="evenodd" clip-rule="evenodd" d="M64.7493 91.3315C64.6069 90.8534 64.8058 90.3809 65.1935 90.2761L110.918 77.922C111.306 77.8172 111.735 78.1198 111.878 78.5979C112.02 79.076 111.821 79.5485 111.434 79.6533L65.7093 92.0074C65.3216 92.1122 64.8918 91.8096 64.7493 91.3315Z" fill="#FFBB33"/>
<path fill-rule="evenodd" clip-rule="evenodd" d="M71.4398 112.94C71.2973 112.462 71.4863 111.992 71.8617 111.891L116.139 99.9277C116.515 99.8263 116.935 100.132 117.077 100.61C117.22 101.088 117.031 101.558 116.655 101.659L72.3775 113.622C72.002 113.724 71.5822 113.418 71.4398 112.94Z" fill="#FFBB33"/>
<path fill-rule="evenodd" clip-rule="evenodd" d="M78.1854 133.689C78.0429 133.211 78.0842 132.781 78.2775 132.728L101.074 126.569C101.268 126.517 101.54 126.862 101.682 127.34C101.825 127.818 101.784 128.248 101.59 128.3L78.7933 134.46C78.6 134.512 78.3278 134.167 78.1854 133.689Z" fill="#FFBB33"/>
<path d="M155.884 186.744L129.658 164.52C127.393 162.607 127.115 159.22 129.034 156.974L169.86 108.058C168.666 107.041 174.102 105.474 177.363 108.245L203.59 130.47C205.855 132.383 206.133 135.769 204.213 138.015L163.443 186.127C160.947 188.983 154.315 189.532 155.884 186.744Z" fill="#FECFD8"/>
<path d="M153.666 186.932L127.439 164.708C125.174 162.795 124.896 159.408 126.816 157.162L167.586 109.05C169.499 106.786 172.886 106.508 175.132 108.427L201.359 130.652C203.623 132.564 203.902 135.951 201.982 138.197L161.212 186.309C159.317 188.567 155.931 188.845 153.666 186.932Z" fill="white"/>
<path d="M161.629 177.211L136.367 155.813C135.639 155.194 135.545 154.1 136.164 153.372L170.459 112.894C171.078 112.166 172.172 112.072 172.9 112.691L198.162 134.088C198.89 134.708 198.984 135.801 198.365 136.529L164.07 177.007C163.445 177.748 162.357 177.83 161.629 177.211Z" fill="#8888F2"/>
<path d="M143.034 174.436C145.063 175.432 147.515 174.595 148.512 172.566C149.508 170.537 148.671 168.085 146.642 167.088C144.613 166.092 142.16 166.929 141.164 168.958C140.168 170.987 141.005 173.44 143.034 174.436Z" fill="white"/>
<path fill-rule="evenodd" clip-rule="evenodd" d="M146.399 167.581C144.642 166.718 142.519 167.443 141.656 169.2C140.793 170.957 141.518 173.081 143.275 173.943C145.032 174.806 147.156 174.081 148.018 172.324C148.881 170.567 148.156 168.443 146.399 167.581ZM140.671 168.716C141.8 166.415 144.582 165.466 146.883 166.595C149.184 167.725 150.133 170.507 149.004 172.808C147.874 175.109 145.092 176.058 142.791 174.929C140.49 173.799 139.541 171.017 140.671 168.716Z" fill="#DBDBDB"/>
<path d="M162.619 151.243C159.797 148.865 159.444 144.66 161.822 141.838L168.282 134.194C170.661 131.372 174.866 131.018 177.688 133.397C180.51 135.775 180.864 139.979 178.485 142.801L172.025 150.446C169.646 153.268 165.441 153.621 162.619 151.243Z" fill="#FFCC66"/>
<path fill-rule="evenodd" clip-rule="evenodd" d="M162.59 137.263C161.999 136.65 161.234 137.263 161.234 137.263L161.231 137.266L161.225 137.273L161.201 137.296C161.182 137.316 161.154 137.343 161.119 137.379C161.049 137.45 160.949 137.554 160.827 137.687C160.583 137.952 160.247 138.336 159.87 138.818C159.12 139.777 158.195 141.144 157.531 142.749C156.867 144.353 156.446 146.239 156.767 148.208C157.057 149.99 157.943 151.77 159.677 153.418C159.548 153.467 159.429 153.549 159.333 153.663L156.557 156.941L153.865 154.681C153.505 154.378 152.968 154.425 152.665 154.785C152.363 155.146 152.409 155.683 152.77 155.985L156.021 158.716C156.047 158.744 156.074 158.77 156.104 158.795C156.135 158.822 156.168 158.846 156.202 158.867L159.432 161.579C159.792 161.882 160.329 161.835 160.632 161.475C160.934 161.114 160.888 160.577 160.527 160.275L157.862 158.037L160.633 154.763C160.728 154.651 160.789 154.521 160.817 154.387C162.788 155.883 164.746 156.468 166.598 156.435C168.589 156.399 170.371 155.651 171.835 154.715C173.3 153.779 174.487 152.629 175.303 151.723C175.712 151.269 176.033 150.871 176.252 150.584C176.362 150.441 176.447 150.325 176.505 150.243C176.534 150.203 176.557 150.171 176.573 150.148L176.591 150.121L176.597 150.113L176.598 150.111C176.598 150.111 176.6 150.109 175.916 149.647L176.6 150.109C176.863 149.719 176.761 149.19 176.371 148.926C175.981 148.663 175.452 148.765 175.189 149.155L175.186 149.158L175.174 149.175C175.163 149.192 175.145 149.217 175.121 149.251C175.072 149.319 174.998 149.42 174.9 149.548C174.703 149.805 174.412 150.167 174.037 150.584C173.284 151.42 172.212 152.453 170.918 153.28C169.623 154.107 168.147 154.703 166.568 154.731C165.009 154.76 163.265 154.237 161.406 152.677L161.405 152.676C159.528 151.108 158.699 149.476 158.448 147.934C158.194 146.373 158.519 144.817 159.105 143.4C159.691 141.985 160.52 140.752 161.212 139.867C161.556 139.426 161.863 139.077 162.081 138.84C162.19 138.721 162.277 138.631 162.335 138.572C162.364 138.542 162.386 138.52 162.4 138.506L162.415 138.491L162.418 138.488C162.418 138.488 163.182 137.875 162.59 137.263Z" fill="#FFCC66"/>
<path d="M189.913 139.537C191.48 140.306 193.374 139.66 194.143 138.093C194.913 136.526 194.266 134.632 192.699 133.862C191.132 133.093 189.238 133.739 188.469 135.306C187.699 136.874 188.346 138.768 189.913 139.537Z" fill="#FF8DA6"/>
<path d="M203.92 132.063C203.494 132.177 203.157 132.551 203.098 132.984C203.039 133.417 203.203 133.837 203.268 134.269C203.308 134.597 203.316 134.924 203.275 135.258C203.258 135.419 203.222 135.586 203.192 135.741C203.15 135.89 203.108 136.039 203.14 136.193C203.178 136.366 203.315 136.495 203.477 136.574C203.899 136.781 204.442 136.678 204.805 136.379C205.598 135.736 205.559 134.593 205.435 133.685C205.428 133.604 205.409 133.518 205.402 133.437C205.305 132.882 205.115 132.234 204.501 132.071C204.297 132.017 204.099 132.012 203.92 132.063Z" fill="#FFAEC0"/>
<path d="M57.1537 143.429L54.4429 124.325L47.4724 142.526L57.1537 143.429Z" fill="#FFCE66"/>
<path d="M81.0343 171.699L83.4869 148.722L74.3865 173.312L81.0343 171.699Z" fill="#FFCE66"/>
<path d="M48.7916 172.526L11.6019 169.465C10.5473 169.378 9.74164 168.439 9.82945 167.372L13.5659 121.976C13.6528 120.921 14.591 120.114 15.6567 120.202L52.8464 123.263C53.9011 123.349 54.7067 124.288 54.6189 125.355L50.8824 170.751C50.7511 171.803 49.8463 172.613 48.7916 172.526Z" fill="white"/>
<path d="M50.8136 126.885L17.2903 124.126L14.501 158.014L48.0354 160.774L50.8247 126.886L50.8136 126.885Z" fill="#60E6F9"/>
<path d="M19.2371 158.404C19.2371 158.404 19.525 147.478 28.6015 148.225C37.6669 148.971 38.0076 140.239 38.0076 140.239C38.0076 140.239 39.336 130.988 50.1892 134.461L48.0207 160.807L19.2344 158.437L19.2371 158.404Z" fill="#0AAEC2"/>
<mask id="mask0_1_4671" style="mask-type:alpha" maskUnits="userSpaceOnUse" x="14" y="124" width="37" height="37">
<path d="M50.8135 126.887L17.2922 124.126L14.5009 158.012L48.0332 160.774L50.8245 126.888L50.8135 126.887Z" fill="#1AD1E6"/>
</mask>
<g mask="url(#mask0_1_4671)">
<path d="M27.2769 140.383C29.54 140.569 31.5331 138.885 31.72 136.616C31.907 134.347 30.2224 132.36 27.9532 132.173C25.69 131.986 23.6969 133.67 23.51 135.94C23.3291 138.209 25.0137 140.196 27.2769 140.383Z" fill="#CAF8FF"/>
</g>
<path d="M68.9808 194.963L32.9841 185.115C31.9633 184.836 31.3438 183.765 31.6261 182.733L43.6489 138.793C43.9283 137.772 44.9988 137.152 46.0303 137.434L82.027 147.282C83.0478 147.561 83.6673 148.632 83.385 149.664L71.3622 193.604C71.0691 194.633 70.0016 195.242 68.9808 194.963Z" fill="white"/>
<path d="M79.3535 150.502L46.8955 141.622L37.9213 174.422L70.3793 183.302L79.3535 150.502Z" fill="#FECFD8"/>
<path fill-rule="evenodd" clip-rule="evenodd" d="M60.0583 155.843C60.4019 155.936 60.6617 156.212 60.7326 156.566L61.3238 159.514C61.4319 160.053 61.9565 160.403 62.4956 160.294C63.0346 160.186 63.3839 159.661 63.2758 159.122L62.6846 156.174C62.4651 155.08 61.6511 154.212 60.581 153.921L54.4833 152.261C53.9528 152.117 53.4057 152.43 53.2614 152.961C53.117 153.491 53.43 154.039 53.9605 154.183L60.0583 155.843Z" fill="#FE6784"/>
<path d="M65.4921 161.871C65.8451 160.573 65.0797 159.235 63.7825 158.882L53.9771 156.214C52.6799 155.861 51.342 156.626 50.989 157.924L49.0252 165.14C48.6721 166.437 49.4375 167.775 50.7347 168.128L60.5402 170.797C61.8374 171.15 63.1752 170.384 63.5283 169.087L65.4921 161.871Z" fill="#FE6784"/>
<path d="M68.3624 162.968L65.0414 163.641L64.0625 167.238L66.5758 169.532C66.8443 169.772 67.2708 169.646 67.3638 169.304L68.9263 163.563C69.0193 163.221 68.7155 162.897 68.3624 162.968Z" fill="#FE6784"/>
<path opacity="0.5" d="M117.512 127.044L98.7729 129.679L105.587 124.147L152.514 111.502L153.568 118.483L117.512 127.044Z" fill="#FFBB33"/>
<path d="M160.908 99.6688C161.251 100.348 160.959 101.146 160.231 101.535L106.498 127.881L102.996 121.393L156.594 95.483C157.433 95.0514 158.513 95.311 158.959 96.0612C159.557 97.0682 160.042 97.9506 160.908 99.6688Z" fill="#FF8DA6"/>
<path d="M160.859 99.6458C161.223 100.335 160.939 101.16 160.193 101.558L106.497 127.881L105.354 125.852C105.354 125.852 140.757 108.727 159.979 98.7793C160.301 98.6127 160.232 98.4618 160.859 99.6458Z" fill="#FE6784"/>
<path d="M95.9621 126.97C94.5192 128.114 95.7636 130.173 97.6542 129.769L106.497 127.881L102.996 121.392L95.9621 126.97Z" fill="#FFEDC1"/>
<mask id="mask1_1_4671" style="mask-type:alpha" maskUnits="userSpaceOnUse" x="92" y="121" width="15" height="10">
<path d="M92.9866 129.329C92.3307 129.849 92.8963 130.785 93.7557 130.601L105.477 128.099C106.003 127.987 106.281 127.481 106.052 127.055L103.485 122.299C103.242 121.848 102.566 121.733 102.141 122.07L92.9866 129.329Z" fill="#FFEDC1"/>
</mask>
<g mask="url(#mask1_1_4671)">
<path d="M92.9862 129.329C92.3303 129.849 92.8959 130.785 93.7553 130.602L98.5018 129.588L96.7511 126.344L92.9862 129.329Z" fill="#484848"/>
</g>
</svg>
